HIERARCHY
ROOT joint_Root
{
	OFFSET 0.0 0.0 0.0
	CHANNELS 6 Xposition Yposition Zposition Zrotation Xrotation Yrotation 
	JOINT Hips
	{
		OFFSET -17.1583 93.1646 452.98
		CHANNELS 6 Xposition Yposition Zposition Zrotation Xrotation Yrotation 
		JOINT Spine
		{
			OFFSET 15.7357 0.0 0.0
			CHANNELS 6 Xposition Yposition Zposition Zrotation Xrotation Yrotation 
			JOINT Chest
			{
				OFFSET 8.98455 -0.406207 0.0
				CHANNELS 6 Xposition Yposition Zposition Zrotation Xrotation Yrotation 
				JOINT Neck
				{
					OFFSET 16.3773 0.0 0.0
					CHANNELS 6 Xposition Yposition Zposition Zrotation Xrotation Yrotation 
					JOINT Head
					{
						OFFSET 6.45672 0.0 0.0
						CHANNELS 6 Xposition Yposition Zposition Zrotation Xrotation Yrotation 
						End Site
						{
							OFFSET 0.0 0.0 0.0
						}
					}
				}
				JOINT Shoulder_L
				{
					OFFSET 12.9942 -0.242716 4.98039
					CHANNELS 6 Xposition Yposition Zposition Zrotation Xrotation Yrotation 
					JOINT UpperArm_L
					{
						OFFSET 5.34809 0.0 0.0
						CHANNELS 6 Xposition Yposition Zposition Zrotation Xrotation Yrotation 
						JOINT LowerArm_L
						{
							OFFSET 24.3286 1.87007e-05 0.0
							CHANNELS 6 Xposition Yposition Zposition Zrotation Xrotation Yrotation 
							JOINT Hand_L
							{
								OFFSET 22.2916 0.0 0.0
								CHANNELS 6 Xposition Yposition Zposition Zrotation Xrotation Yrotation 
								End Site
								{
									OFFSET 0.0 0.0 0.0
								}
							}
						}
					}
				}
				JOINT Shoulder_R
				{
					OFFSET 12.9945 -0.242716 -4.98039
					CHANNELS 6 Xposition Yposition Zposition Zrotation Xrotation Yrotation 
					JOINT UpperArm_R
					{
						OFFSET -5.34813 0.0 0.0
						CHANNELS 6 Xposition Yposition Zposition Zrotation Xrotation Yrotation 
						JOINT LowerArm_R
						{
							OFFSET -24.3289 0.000322201 0.0
							CHANNELS 6 Xposition Yposition Zposition Zrotation Xrotation Yrotation 
							JOINT Hand_R
							{
								OFFSET -22.2915 -0.000108084 0.0
								CHANNELS 6 Xposition Yposition Zposition Zrotation Xrotation Yrotation 
								End Site
								{
									OFFSET 0.0 0.0 0.0
								}
							}
						}
					}
				}
			}
		}
		JOINT UpperLeg_L
		{
			OFFSET -2.19248 -6.46944 0.0
			CHANNELS 6 Xposition Yposition Zposition Zrotation Xrotation Yrotation 
			JOINT LowerLeg_L
			{
				OFFSET 39.0811 0.0 -1.23785e-05
				CHANNELS 6 Xposition Yposition Zposition Zrotation Xrotation Yrotation 
				JOINT Foot_L
				{
					OFFSET 40.9854 0.0 -1.26872e-05
					CHANNELS 6 Xposition Yposition Zposition Zrotation Xrotation Yrotation 
					JOINT Toes_L
					{
						OFFSET 11.7543 0.0 0.0
						CHANNELS 6 Xposition Yposition Zposition Zrotation Xrotation Yrotation 
						End Site
						{
							OFFSET 0.0 0.0 0.0
						}
					}
				}
			}
		}
		JOINT UpperLeg_R
		{
			OFFSET -2.19251 6.46944 0.0
			CHANNELS 6 Xposition Yposition Zposition Zrotation Xrotation Yrotation 
			JOINT LowerLeg_R
			{
				OFFSET -39.0811 -0.00228153 -0.0401928
				CHANNELS 6 Xposition Yposition Zposition Zrotation Xrotation Yrotation 
				JOINT Foot_R
				{
					OFFSET -40.9854 0.0 0.0
					CHANNELS 6 Xposition Yposition Zposition Zrotation Xrotation Yrotation 
					JOINT Toes_R
					{
						OFFSET -11.7543 0.0 0.0
						CHANNELS 6 Xposition Yposition Zposition Zrotation Xrotation Yrotation 
						End Site
						{
							OFFSET 0.0 0.0 0.0
						}
					}
				}
			}
		}
	}
}
MOTION
Frames:	8
Frame Time:	0.0333333
0.000000 0.000000 0.000000 0.000000 0.000000 -0.000000 0.065323 92.562800 -0.411592 85.530000 -1.856350 0.599073 15.735700 0.000005 -0.000001 88.142300 87.875600 -85.700900 8.984550 -0.406207 -0.000000 -3.506710 -0.377669 4.872640 16.377300 -0.000001 -0.000001 4.589490 4.839780 -2.226630 6.456720 -0.000001 -0.000000 5.569230 5.978710 -5.307900 12.994200 -0.242716 4.980390 -92.817000 8.633620 -71.851900 5.348090 -0.000007 -0.000001 -73.098800 10.612400 2.119920 24.328600 0.000019 0.000005 11.669000 25.450100 -25.668800 22.291600 -0.000001 0.000005 -0.949345 4.951830 8.327480 12.994500 -0.242716 -4.980390 88.500100 5.102480 -73.595200 -5.348130 -0.000001 -0.000004 -71.054300 29.590600 -3.525390 -24.328900 0.000322 -0.000009 2.164360 7.636660 -15.882700 -22.291500 -0.000108 -0.000004 0.684892 5.276890 0.711248 -2.192480 -6.469440 -0.000000 -175.492000 -1.862860 -4.783110 39.081100 -0.000007 -0.000012 0.288375 -0.659947 23.604400 40.985400 -0.000006 -0.000013 3.277830 8.510320 -73.947400 11.754300 -0.000000 0.000003 -0.000409 0.174254 -9.508780 -2.192510 6.469440 -0.000001 -173.820000 5.480030 -179.083000 -39.081100 -0.002282 -0.040193 0.064486 -0.248877 13.805000 -40.985400 0.000008 0.000006 0.741252 0.919770 -69.838300 -11.754300 -0.000006 -0.000006 -0.010297 0.273513 -5.460680
0.000000 0.000000 0.000000 0.000000 0.000000 -0.000000 0.034141 92.583300 -0.457923 85.557200 -1.832780 0.495762 15.735700 0.000005 -0.000001 87.771700 87.877000 -85.327200 8.984550 -0.406207 -0.000000 -3.509990 -0.405371 4.877950 16.377300 -0.000001 -0.000001 4.477500 4.821530 -2.328680 6.456720 -0.000001 -0.000000 5.397260 5.966080 -5.412950 12.994200 -0.242716 4.980390 -92.853600 8.760090 -71.876800 5.348090 -0.000007 -0.000001 -71.897100 8.517450 1.001270 24.328600 0.000019 0.000005 11.245400 25.405000 -24.865400 22.291600 -0.000001 0.000005 -0.863508 4.927020 8.834120 12.994500 -0.242716 -4.980390 88.539600 4.993260 -73.674000 -5.348130 -0.000001 -0.000004 -71.183500 29.548700 -3.530890 -24.328900 0.000322 -0.000009 2.192700 7.733430 -15.890200 -22.291500 -0.000108 -0.000004 0.697626 5.275420 0.751341 -2.192480 -6.469440 -0.000000 -175.498000 -1.904530 -4.858240 39.081100 -0.000007 -0.000012 0.286463 -0.659285 23.485800 40.985400 -0.000006 -0.000013 3.250210 8.546790 -73.901000 11.754300 -0.000000 0.000003 -0.000406 0.174204 -9.510820 -2.192510 6.469440 -0.000001 -173.829000 5.429410 -179.196000 -39.081100 -0.002282 -0.040193 0.061428 -0.237410 13.750400 -40.985400 0.000008 0.000006 0.519961 0.898846 -69.741000 -11.754300 -0.000006 -0.000006 -0.009907 0.270605 -5.579610
0.000000 0.000000 0.000000 0.000000 0.000000 -0.000000 0.001067 92.594400 -0.480075 85.608800 -1.832530 0.456941 15.735700 0.000005 -0.000001 88.106000 87.867800 -85.663600 8.984550 -0.406207 -0.000000 -3.491220 -0.380631 4.874560 16.377300 -0.000001 -0.000001 4.432000 4.837920 -2.507670 6.456720 -0.000001 -0.000000 5.172970 5.923460 -5.485390 12.994200 -0.242716 4.980390 -92.863600 8.789090 -71.873500 5.348090 -0.000007 -0.000001 -70.667800 5.496400 -0.598169 24.328600 0.000019 0.000005 10.348500 25.134900 -23.263200 22.291600 -0.000001 0.000005 0.085563 4.910330 9.168940 12.994500 -0.242716 -4.980390 88.576900 4.885710 -73.738200 -5.348130 -0.000001 -0.000004 -71.274500 29.672400 -3.506360 -24.328900 0.000322 -0.000009 2.172090 7.648920 -15.912400 -22.291500 -0.000108 -0.000004 0.766475 5.274210 0.784147 -2.192480 -6.469440 -0.000000 -175.505000 -2.030860 -4.863840 39.081100 -0.000007 -0.000012 0.281118 -0.650054 23.386900 40.985400 -0.000006 -0.000013 3.243130 8.686640 -73.846900 11.754300 -0.000000 0.000003 -0.000464 0.175105 -9.474220 -2.192510 6.469440 -0.000001 -173.848000 5.357090 -179.241000 -39.081100 -0.002282 -0.040193 0.061390 -0.237700 13.725700 -40.985400 0.000008 0.000006 0.511815 0.840953 -69.724100 -11.754300 -0.000006 -0.000006 -0.009989 0.271222 -5.554380
0.000000 0.000000 0.000000 0.000000 0.000000 -0.000000 -0.052826 92.603000 -0.513802 85.641300 -1.759560 0.444339 15.735700 0.000005 -0.000001 87.971800 87.854300 -85.513300 8.984550 -0.406207 -0.000000 -3.464170 -0.392573 4.906450 16.377300 -0.000001 -0.000001 4.354410 4.846360 -2.811060 6.456720 -0.000001 -0.000000 5.041420 5.842810 -5.602200 12.994200 -0.242716 4.980390 -92.861800 8.821290 -71.945400 5.348090 -0.000007 -0.000001 -69.383600 1.775010 -2.235340 24.328600 0.000019 0.000005 9.350440 24.228300 -21.862600 22.291600 -0.000001 0.000005 1.875260 4.871600 9.935730 12.994500 -0.242716 -4.980390 88.610200 4.786870 -73.789500 -5.348130 -0.000001 -0.000004 -71.297000 29.810300 -3.535420 -24.328900 0.000322 -0.000009 2.145550 7.564460 -15.893400 -22.291500 -0.000108 -0.000004 0.746318 5.273110 0.813766 -2.192480 -6.469440 -0.000000 -175.476000 -2.177600 -4.888780 39.081100 -0.000007 -0.000012 0.279680 -0.648414 23.332500 40.985400 -0.000006 -0.000013 3.249950 8.920850 -73.775900 11.754300 -0.000000 0.000003 -0.000248 0.171698 -9.612630 -2.192510 6.469440 -0.000001 -173.821000 5.324340 -179.247000 -39.081100 -0.002282 -0.040193 0.060921 -0.237002 13.657500 -40.985400 0.000008 0.000006 0.599391 0.725891 -69.694400 -11.754300 -0.000006 -0.000006 -0.010058 0.271741 -5.533170
0.000000 0.000000 0.000000 0.000000 0.000000 -0.000000 -0.126127 92.615900 -0.559152 85.687900 -1.619320 0.396730 15.735700 0.000005 -0.000001 86.970800 87.847000 -84.495200 8.984550 -0.406207 -0.000000 -3.451110 -0.469607 4.938450 16.377300 -0.000001 -0.000001 4.261900 4.842600 -3.162060 6.456720 -0.000001 -0.000000 4.946990 5.763020 -5.906400 12.994200 -0.242716 4.980390 -92.851300 8.804160 -71.974700 5.348090 -0.000007 -0.000001 -68.297400 -3.133630 -3.758210 24.328600 0.000019 0.000005 8.453030 22.221100 -21.454100 22.291600 -0.000001 0.000005 4.216820 4.801500 11.281500 12.994500 -0.242716 -4.980390 88.620900 4.761590 -73.826500 -5.348130 -0.000001 -0.000004 -71.228600 29.874000 -3.587780 -24.328900 0.000322 -0.000009 2.129640 7.483220 -15.943100 -22.291500 -0.000108 -0.000004 0.718601 5.273210 0.811225 -2.192480 -6.469440 -0.000000 -175.460000 -2.171380 -4.966170 39.081100 -0.000007 -0.000012 0.278026 -0.646570 23.268300 40.985400 -0.000006 -0.000013 3.220620 9.080450 -73.725100 11.754300 -0.000000 0.000003 -0.000254 0.171798 -9.608560 -2.192510 6.469440 -0.000001 -173.806000 5.336990 -179.309000 -39.081100 -0.002282 -0.040193 0.059196 -0.230775 13.607700 -40.985400 0.000008 0.000006 0.526981 0.622426 -69.609100 -11.754300 -0.000006 -0.000006 -0.009651 0.268682 -5.658260
0.000000 0.000000 0.000000 0.000000 0.000000 -0.000000 -0.205367 92.611200 -0.605533 85.736200 -1.554900 0.408602 15.735700 0.000005 -0.000001 86.561200 87.822800 -84.055200 8.984550 -0.406207 -0.000000 -3.403530 -0.505150 4.998300 16.377300 -0.000001 -0.000001 4.223080 4.832210 -3.537310 6.456720 -0.000001 -0.000000 4.800790 5.643460 -6.475360 12.994200 -0.242716 4.980390 -92.871400 8.858010 -71.958300 5.348090 -0.000007 -0.000001 -67.224400 -8.166460 -4.696070 24.328600 0.000019 0.000005 7.928870 18.796100 -23.380800 22.291600 -0.000001 0.000005 6.865500 4.706870 13.030100 12.994500 -0.242716 -4.980390 88.629000 4.713980 -73.763300 -5.348130 -0.000001 -0.000004 -71.089300 30.030900 -3.720280 -24.328900 0.000322 -0.000009 2.107150 7.388940 -15.973200 -22.291500 -0.000108 -0.000004 0.746002 5.275030 0.761841 -2.192480 -6.469440 -0.000000 -175.424000 -2.318250 -5.008820 39.081100 -0.000007 -0.000012 0.277707 -0.644710 23.304400 40.985400 -0.000006 -0.000013 3.199740 9.286800 -73.742400 11.754300 -0.000000 0.000003 -0.000414 0.174322 -9.506040 -2.192510 6.469440 -0.000001 -173.753000 5.267790 -179.368000 -39.081100 -0.002282 -0.040193 0.062584 -0.243407 13.681200 -40.985400 0.000008 0.000006 0.701747 0.439152 -69.660300 -11.754300 -0.000006 -0.000006 -0.009711 0.269130 -5.639940
0.000000 0.000000 0.000000 0.000000 0.000000 -0.000000 -0.305838 92.624000 -0.648637 85.765000 -1.482940 0.372317 15.735700 0.000005 -0.000001 86.181000 87.813300 -83.639100 8.984550 -0.406207 -0.000000 -3.385290 -0.538339 5.069040 16.377300 -0.000001 -0.000001 4.175920 4.802620 -3.934180 6.456720 -0.000001 -0.000000 4.687850 5.444730 -7.244920 12.994200 -0.242716 4.980390 -92.892000 8.905580 -71.926900 5.348090 -0.000007 -0.000001 -66.400800 -13.249100 -5.250290 24.328600 0.000019 0.000005 7.584960 14.882800 -27.410100 22.291600 -0.000001 0.000005 10.106700 4.656110 13.930500 12.994500 -0.242716 -4.980390 88.630300 4.693010 -73.709500 -5.348130 -0.000001 -0.000004 -70.958800 29.958700 -3.812410 -24.328900 0.000322 -0.000009 2.135860 7.451110 -16.052300 -22.291500 -0.000108 -0.000004 0.766971 5.273490 0.803829 -2.192480 -6.469440 -0.000000 -175.371000 -2.359910 -5.049910 39.081100 -0.000007 -0.000012 0.275286 -0.641202 23.235800 40.985400 -0.000006 -0.000013 3.146670 9.424450 -73.709800 11.754300 -0.000000 0.000003 -0.000386 0.173893 -9.523460 -2.192510 6.469440 -0.000001 -173.689000 5.140600 -179.395000 -39.081100 -0.002282 -0.040193 0.061088 -0.238918 13.589700 -40.985400 0.000008 0.000006 0.727956 0.226253 -69.617500 -11.754300 -0.000006 -0.000006 -0.010040 0.271602 -5.538850
0.000000 0.000000 0.000000 0.000000 0.000000 -0.000000 -0.411458 92.614300 -0.698810 85.779100 -1.437530 0.408544 15.735700 0.000005 -0.000001 86.653600 87.801000 -84.071400 8.984550 -0.406207 -0.000000 -3.358950 -0.507104 5.150890 16.377300 -0.000001 -0.000001 4.236710 4.727640 -4.438150 6.456720 -0.000001 -0.000000 4.625030 5.137680 -8.138070 12.994200 -0.242716 4.980390 -92.916400 8.942360 -71.853900 5.348090 -0.000007 -0.000001 -65.744000 -17.274100 -5.544900 24.328600 0.000019 0.000005 8.608700 13.146000 -33.649000 22.291600 -0.000001 0.000005 14.430800 4.571550 15.389000 12.994500 -0.242716 -4.980390 88.626500 4.692580 -73.665200 -5.348130 -0.000001 -0.000004 -70.812800 29.858500 -3.811240 -24.328900 0.000322 -0.000009 2.151950 7.466890 -16.134800 -22.291500 -0.000108 -0.000004 0.751876 5.274910 0.765237 -2.192480 -6.469440 -0.000000 -175.297000 -2.403830 -5.101550 39.081100 -0.000007 -0.000012 0.277796 -0.644076 23.331600 40.985400 -0.000006 -0.000013 3.092940 9.535600 -73.728700 11.754300 -0.000000 0.000003 -0.000505 0.175733 -9.448690 -2.192510 6.469440 -0.000001 -173.586000 5.050200 -179.429000 -39.081100 -0.002282 -0.040193 0.064141 -0.250162 13.662300 -40.985400 0.000008 0.000006 0.910778 0.038339 -69.654100 -11.754300 -0.000006 -0.000006 -0.009936 0.270827 -5.570550
